
Video
ID                               : 0
Format                           : MPEG-4 Visual
Format profile                   : Advanced Simple@L5
Format settings, BVOP            : 2
Format settings, QPel            : No
Format settings, GMC             : No warppoints
Format settings, Matrix          : Default (H.263)
Codec ID                         : XVID
Codec ID/Hint                    : XviD
Duration                         : 1h 32mn
Bit rate                         : 856 Kbps
Width                            : 720 pixels
Height                           : 432 pixels
Display aspect ratio             : 16:9
Frame rate                       : 23.976 fps
Color space                      : YUV
Chroma subsampling               : 4:2:0
Bit depth                        : 8 bits
Scan type                        : Progressive
Compression mode                 : Lossy
Bits/(Pixel*Frame)               : 0.115
Stream size                      : 564 MiB (81%)
Writing library                  : XviD 1.2.1 (UTC 2008-12-04)

Audio
ID                               : 1
Format                           : AC-3
Format/Info                      : Audio Coding 3
Mode extension                   : CM (complete main)
Codec ID                         : 2000
Duration                         : 1h 32mn
Bit rate mode                    : Constant
Bit rate                         : 192 Kbps
Channel(s)                       : 6 channels
Channel positions                : Front: L C R, Side: L R, LFE
Sampling rate                    : 48.0 KHz
Bit depth                        : 16 bits
Compression mode                 : Lossy
Stream size                      : 127 MiB (18%)
Alignment                        : Split accross interleaves
Interleave, duration             : 42 ms (1.00 video frame)
Interleave, preload duration     : 500 ms


 
http://img832.imageshack.us/img832/3599/30116861.png 
http://img856.imageshack.us/img856/6916/52690566.png 
http://img818.imageshack.us/img818/387/25093405.png 
http://img39.imageshack.us/img39/6383/68003855.png 
http://img827.imageshack.us/img827/496/90657421.png 
http://img853.imageshack.us/img853/1599/48340967.png 
http://img696.imageshack.us/img696/3685/26617438.png 
http://img213.imageshack.us/img213/1734/18425958.png 
http://img851.imageshack.us/img851/1482/67575432.png 
http://img838.imageshack.us/img838/237/40731323.png
